:SAMPLES-PER-SECOND 30
:FULLY-SPECIFIED
:DEGREES
752
root  44.4479 35.3411 8.7653 125.374 75.7249 116.577
RightUpLeg  -38.2955 -14.1034 -13.7392
RightLeg  54.8017 -4.05386 -6.56645
RightFoot  -20.5082 -0.0303371 1.35335
RightToes  -1.81608e-008 0 -3.6325e-017
Spine  22.3821 -3.01463 -4.87855
Spine1  -6.25278 -4.09376 1.4317
HEad  -15.9803 1.6007 -7.16889
LeftShoulder1  0.0977024 3.21631 -27.5688
LeftArm  6.63528 -2.53775 -50.916
LeftForeArm  22.7034 -23.2006 -3.8442
LeftHand  -0.0738289 2.80988 2.74263
RightShoulder  -0.383804 -4.75119 23.7609
RightArm  14.5569 3.98055 44.1317
RightForeArm  5.57697 16.6346 5.0875
RightHand  -0.248298 1.88912 -4.13433
LeftUpLeg  -10.8713 12.2238 14.597
LeftLeg  11.0292 -3.24966 -0.175023
LeftFoot  -1.51203 1.20952 -13.9179
LeftToes  1.81866e-011 -6.13092e-011 2.52013e-011
753
root  44.8682 35.6386 8.87198 121.781 75.9279 113.32
RightUpLeg  -36.455 -12.8808 -13.9493
RightLeg  53.2064 -4.43289 -6.72845
RightFoot  -20.5519 -0.021791 1.45701
RightToes  -1.81608e-008 0 -3.6325e-017
Spine  21.8257 -2.95933 -3.67001
Spine1  -6.57568 -3.58903 -0.19533
HEad  -13.7626 2.38959 -7.76943
LeftShoulder1  0.013466 3.45759 -27.665
LeftArm  5.39233 -0.785233 -49.3125
LeftForeArm  23.4558 -24.6632 -4.02916
LeftHand  -0.0562582 3.41898 2.31253
RightShoulder  -0.465876 -5.00074 24.2619
RightArm  14.5228 3.58297 44.5578
RightForeArm  5.79488 15.6485 5.34203
RightHand  -0.23268 1.38766 -4.12755
LeftUpLeg  -11.3033 12.0566 13.4696
LeftLeg  10.5506 -3.19272 -0.321856
LeftFoot  -1.55513 1.29263 -14.9234
LeftToes  1.81866e-011 -6.13092e-011 2.52013e-011
754
root  45.3132 35.9675 8.97436 118.173 76.1598 110.573
RightUpLeg  -33.8596 -12.3118 -14.0603
RightLeg  51.3074 -4.49104 -6.35821
RightFoot  -20.5057 -0.0340547 1.30714
RightToes  -1.81608e-008 0 -3.6325e-017
Spine  21.2162 -2.3908 -4.49951
Spine1  -5.95551 -3.30865 1.1219
HEad  -12.3388 3.45286 -8.85622
LeftShoulder1  -0.132858 3.88004 -29.0355
LeftArm  3.52152 0.602329 -46.7222
LeftForeArm  23.8308 -26.0774 -4.32473
LeftHand  -0.0465632 3.51301 1.77502
RightShoulder  -0.436977 -4.92 23.9271
RightArm  14.052 3.4504 45.2396
RightForeArm  6.27988 14.9548 5.46265
RightHand  -0.237596 1.68226 -4.0583
LeftUpLeg  -10.9747 12.5034 12.8116
LeftLeg  9.08986 -3.51796 -0.876492
LeftFoot  -1.6479 1.33101 -15.5029
LeftToes  1.81866e-011 -6.13092e-011 2.52013e-011
755
root  45.7439 36.2945 9.05115 115.947 76.4408 109.149
RightUpLeg  -31.2251 -12.3722 -13.9732
RightLeg  49.2029 -4.33679 -5.71336
RightFoot  -20.4101 -0.0542462 1.05795
RightToes  -1.81608e-008 0 -3.6325e-017
Spine  20.7435 -2.15919 -4.06243
Spine1  -6.11816 -2.87268 0.249764
HEad  -10.4035 4.13171 -8.92382
LeftShoulder1  -0.00815439 3.52573 -28.0541
LeftArm  0.820932 2.9308 -45.6094
LeftForeArm  24.3538 -26.8309 -4.46122
LeftHand  -0.0614952 3.42499 2.68113
RightShoulder  -0.558877 -5.27133 24.862
RightArm  14.6489 2.7714 45.2765
RightForeArm  6.51122 15.0309 5.51771
RightHand  -0.213574 1.22646 -3.88024
LeftUpLeg  -10.9173 12.3932 12.3735
LeftLeg  7.27049 -2.1589 -0.980687
LeftFoot  -1.45558 1.33528 -15.2647
LeftToes  1.81866e-011 -6.13092e-011 2.52013e-011
756
root  46.1294 36.5349 9.09936 116.842 76.739 110.481
RightUpLeg  -29.1671 -13.5421 -13.5644
RightLeg  47.4639 -3.873 -4.84114
RightFoot  -20.4027 -0.08849 0.626455
RightToes  -1.81608e-008 0 -3.6325e-017
Spine  20.2167 -2.2397 -3.7958
Spine1  -6.7353 -2.87571 0.122252
HEad  -8.09252 4.76349 -8.76335
LeftShoulder1  -0.221825 4.13806 -28.8848
LeftArm  -0.235215 3.68894 -42.7947
LeftForeArm  23.7609 -26.6724 -4.45856
LeftHand  -0.0695893 3.09999 2.72277
RightShoulder  -0.57393 -5.30992 25.0148
RightArm  15.4013 1.76432 45.8187
RightForeArm  6.52836 15.4675 5.50427
RightHand  -0.235443 1.79325 -3.96773
LeftUpLeg  -12.0177 12.1353 12.2044
LeftLeg  6.12655 -1.58926 -0.898618
LeftFoot  -1.47092 1.32558 -15.177
LeftToes  1.81866e-011 -6.13092e-011 2.52013e-011
757
root  46.5347 36.728 9.11158 115.901 77.2505 110.281
RightUpLeg  -26.9397 -14.2554 -13.2729
RightLeg  45.9733 -3.30777 -3.97706
RightFoot  -20.5553 -0.117444 0.269456
RightToes  -1.81608e-008 0 -3.6325e-017
Spine  19.7873 -2.05965 -3.96238
Spine1  -7.0052 -2.73918 0.394487
HEad  -5.85114 6.05902 -9.08574
LeftShoulder1  -0.204738 4.09126 -28.7085
LeftArm  -3.52407 5.78726 -41.3582
LeftForeArm  23.7863 -26.9873 -4.52646
LeftHand  -0.0890999 2.88499 3.45536
RightShoulder  -0.527851 -5.18361 24.6328
RightArm  16.4605 0.989839 46.8185
RightForeArm  6.31588 15.8476 5.5467
RightHand  -0.251429 1.69227 -4.27801
LeftUpLeg  -12.5264 12.138 12.4649
LeftLeg  5.0601 -1.43567 -0.810889
LeftFoot  -1.51644 1.32537 -15.2405
LeftToes  1.81866e-011 -6.13092e-011 2.52013e-011
758
root  46.916 36.834 9.06349 114.542 77.5942 109.563
RightUpLeg  -25.1413 -15.0202 -13.3282
RightLeg  45.0679 -2.62943 -3.13121
RightFoot  -20.862 -0.139328 0.022915
RightToes  -1.81608e-008 0 -3.6325e-017
Spine  19.602 -1.82895 -4.02258
Spine1  -7.52741 -2.46962 0.0703957
HEad  -4.01023 6.69262 -8.89316
LeftShoulder1  -0.258201 4.24925 -28.4676
LeftArm  -5.29346 6.77969 -39.6933
LeftForeArm  22.3737 -26.7136 -4.54206
LeftHand  -0.0498854 3.58028 2.11304
RightShoulder  -0.581935 -5.36276 24.5545
RightArm  18.2009 0.146896 47.36
RightForeArm  5.7967 16.9789 5.42286
RightHand  -0.208947 1.00658 -3.91642
LeftUpLeg  -13.2316 12.1985 12.7087
LeftLeg  4.32117 -1.40108 -0.726641
LeftFoot  -1.42871 1.3678 -15.5951
LeftToes  1.81866e-011 -6.13092e-011 2.52013e-011
759
root  47.3052 36.8694 8.96078 111.312 77.8347 107.17
RightUpLeg  -23.4176 -15.1077 -13.8176
RightLeg  44.7043 -2.09909 -2.5323
RightFoot  -21.4083 -0.138353 0.0711482
RightToes  -1.81608e-008 0 -3.6325e-017
Spine  19.1517 -1.6857 -3.78903
Spine1  -7.36057 -2.12322 -1.26873
HEad  -3.01439 6.97709 -8.53466
LeftShoulder1  -0.257127 4.2508 -28.2333
LeftArm  -7.73464 8.00267 -38.1416
LeftForeArm  22.1165 -26.7769 -4.56991
LeftHand  -0.0460541 3.97156 2.16064
RightShoulder  -0.637404 -5.50808 25.0539
RightArm  18.966 -0.45049 47.675
RightForeArm  5.3893 18.062 5.1741
RightHand  -0.22201 1.6815 -3.80538
LeftUpLeg  -13.5807 12.434 13.0596
LeftLeg  3.79716 -1.66101 -0.728509
LeftFoot  -1.44397 1.37731 -15.725
LeftToes  1.81866e-011 -6.13092e-011 2.52013e-011
